Coordinates
version=1
nRows=12
nColumns=24
inDegrees=yes

Units are S.I. units (second, meters, Newtons, ...)
Angles are in degrees.

endheader
time	pelvis_tilt	pelvis_list	pelvis_rotation	pelvis_tx	pelvis_ty	pelvis_tz	hip_flexion_r	hip_adduction_r	hip_rotation_r	knee_angle_r	ankle_angle_r	subtalar_angle_r	mtp_angle_r	hip_flexion_l	hip_adduction_l	hip_rotation_l	knee_angle_l	ankle_angle_l	subtalar_angle_l	mtp_angle_l	lumbar_extension	lumbar_bending	lumbar_rotation
      1.86000000	     24.05608693	      3.00566066	     -4.56694176	      0.65404055	      0.96479891	      0.00157555	    -35.04186832	     -5.80493070	     -6.49734588	    -34.11130112	     -7.51696170	     -0.12713092	     52.16281572	    -10.06883898	      6.73215417	    -14.55222604	     -8.89209696	     -1.57470264	      4.49286772	     22.41498145	    -29.94149046	     -8.26540346	      3.42332706
      1.86500000	     24.09933550	      3.28113099	     -4.74704010	      0.66011708	      0.96551961	      0.00109497	    -34.29105035	     -6.36679629	     -6.60255807	    -35.73286995	     -9.23544389	     -0.34504985	     52.14280790	    -10.52003180	      7.13218854	    -14.52070683	     -8.85324975	     -1.28497187	      4.57621020	     22.34083693	    -29.88644275	     -8.64275513	      3.38684981
      1.87000000	     24.10663844	      3.50993825	     -4.90565975	      0.66611169	      0.96620689	      0.00059445	    -33.48954971	     -6.86661710	     -6.68386719	    -37.29216116	    -11.04385949	     -0.96827025	     53.54854643	    -10.95555869	      7.48437706	    -14.39571048	     -8.78144892	     -0.70215636	      4.77379507	     20.75223870	    -29.80229277	     -8.95926031	      3.38814929
      1.87500000	     24.12331287	      3.71762598	     -5.12003250	      0.67207863	      0.96691949	      0.00015231	    -32.67127089	     -7.38407374	     -6.68555049	    -38.84446904	    -12.59490895	     -1.29233876	     53.34808907	    -11.43902099	      7.83811368	    -14.35270669	     -8.60233996	     -0.43761063	      4.80721316	     20.69622982	    -29.71778954	     -9.27334078	      3.45484964
      1.88000000	     24.13475789	      3.88740926	     -5.31041703	      0.67796139	      0.96764457	     -0.00031656	    -31.84482765	     -7.84930727	     -6.67047539	    -40.33482089	    -14.04518629	     -1.63488900	     53.10503948	    -11.92397772	      8.15203880	    -14.27343304	     -8.40620780	     -0.16641747	      4.81420965	     20.60619384	    -29.64058323	     -9.53434464	      3.51286889
      1.88500000	     24.16479508	      4.03119347	     -5.49388547	      0.68379601	      0.96840338	     -0.00078269	    -31.04265734	     -8.28551404	     -6.63186752	    -41.75116800	    -15.37463666	     -1.85420036	     52.86649651	    -12.43422587	      8.44117860	    -14.22170953	     -8.19898320	      0.08418014	      4.82964670	     20.54218016	    -29.58753022	     -9.76337227	      3.54092226
      1.89000000	     24.14434136	      4.12618125	     -5.65752806	      0.68950551	      0.96910873	     -0.00128190	    -30.15512796	     -8.65450294	     -6.57231686	    -43.18639023	    -16.27711276	     -2.06219269	     50.94892290	    -12.90187485	      8.67963436	    -14.07047432	     -7.96730454	      0.48996195	      4.84734679	     19.49193516	    -29.49336282	     -9.92634848	      3.63372376
      1.89500000	     24.16711230	      4.17660212	     -5.85724237	      0.69517850	      0.96990579	     -0.00171011	    -29.32234757	     -8.99613939	     -6.44561118	    -44.50150277	    -17.19434891	     -2.24147071	     50.78481774	    -13.42538951	      8.88144295	    -14.06023060	     -7.70890526	      0.69026465	      4.87692922	     19.47117079	    -29.44479229	    -10.05997485	      3.75458748
      1.90000000	     24.11814886	      4.17579298	     -6.05339259	      0.70073477	      0.97060541	     -0.00211866	    -28.38182766	     -9.25903672	     -6.25676875	    -45.81871774	    -17.72762344	     -2.54322662	     50.27385551	    -13.87840915	      9.02962849	    -13.98722218	     -7.42772144	      0.95612150	      4.80069937	     19.34625824	    -29.33026527	    -10.13476837	      3.91341442
      1.90500000	     24.08005007	      4.17779624	     -6.19417882	      0.70619265	      0.97132456	     -0.00264467	    -27.45036493	     -9.51605977	     -6.15486704	    -47.11534272	    -17.90069033	     -2.42043445	     48.06904065	    -14.32517374	      9.16812366	    -13.86558081	     -7.17971331	      1.19269964	      4.82066304	     18.79604641	    -29.24679322	    -10.17805090	      4.04482824
      1.91000000	     24.11136958	      4.12399949	     -6.41618681	      0.71163540	      0.97214604	     -0.00299465	    -26.59907725	     -9.73502957	     -5.94945816	    -48.28610909	    -18.03825216	     -2.59955326	     47.93489132	    -14.87359561	      9.27649232	    -13.91591128	     -6.87826639	      1.37735481	      4.82134367	     18.77740942	    -29.22623455	    -10.20887005	      4.25689522
      1.91500000	     24.08234584	      4.03868718	     -6.60814018	      0.71695601	      0.97288454	     -0.00337248	    -25.66486092	     -9.89021711	     -5.73500585	    -49.44108838	    -17.86763249	     -2.72812596	     47.71754766	    -15.34222527	      9.33822682	    -13.92355652	     -6.59683980	      1.55615291	      4.81337052	     18.74383855	    -29.15997282	    -10.18591653	      4.46497331
